<svg xmlns="http://www.w3.org/2000/svg" width="67.027" height="58.942" viewBox="0 0 67.027 58.942">
  <g id="Group_7921" data-name="Group 7921" transform="translate(1136.023 -675.615)">
    <path id="Path_29270" data-name="Path 29270" d="M-1081.959,765.9a1.743,1.743,0,0,1-.927-1.783c.052-1.126.013-2.256.013-3.453h-13.194c-.175,0-.35.006-.524,0a1.317,1.317,0,0,1-1.333-1.324,1.314,1.314,0,0,1,1.3-1.286c.2-.012.393,0,.589,0h21.756v-14.4h-56.471v14.4h21.754c.2,0,.393-.008.589,0a1.317,1.317,0,0,1,1.306,1.285,1.318,1.318,0,0,1-1.333,1.324c-.24.012-.48,0-.72,0h-13v2.013c0,.48-.036.963.008,1.439a1.692,1.692,0,0,1-.922,1.783h-6.021a1.712,1.712,0,0,1-.932-1.773c.052-1.142.013-2.288.013-3.462-.638,0-1.181,0-1.723,0-1.239,0-1.677-.446-1.677-1.7q0-7.283,0-14.567v-.8c-1.022-.007-2.035.168-2.618-.865v-6.02a1.575,1.575,0,0,1,1.671-.981c1.2.03,2.4.008,3.6.008h.75c0-1.214,0-2.346,0-3.477a6.189,6.189,0,0,1,6.43-6.428q4.842-.011,9.685,0a6.193,6.193,0,0,1,6.4,6.4c.006,1.133,0,2.265,0,3.453h9.956c0-1.26-.04-2.517.009-3.771a5.964,5.964,0,0,1,3.3-5.342,15.107,15.107,0,0,1,2.373-.828,19.393,19.393,0,0,1-1.005-3.1,9.229,9.229,0,0,1,.3-4.65,6.7,6.7,0,0,1,7.459-4.3,6.735,6.735,0,0,1,5.489,6.437c.057,1.987-.016,3.932-1.361,5.64.5.1.923.155,1.331.264a6.2,6.2,0,0,1,4.6,5.905c.02,1.239,0,2.478,0,3.8h3.574c.349,0,.7-.011,1.047.005a1.3,1.3,0,0,1,1.4,1.454c.01,1.614.008,3.228,0,4.842a1.351,1.351,0,0,1-1.51,1.549c-.345.01-.69,0-1.106,0v.828q0,7.262,0,14.525c0,1.291-.432,1.718-1.731,1.72-.522,0-1.045,0-1.67,0v2.477c0,.414-.023.83,0,1.243a1.564,1.564,0,0,1-.923,1.515Zm-51.424-24.975h61.725v-2.514h-61.725Zm6.008-5.238h17.26c0-1.339.05-2.626-.012-3.908a3.5,3.5,0,0,0-3.422-3.314q-5.2-.043-10.4,0a3.491,3.491,0,0,0-3.41,3.253C-1127.429,733.025-1127.375,734.335-1127.375,735.691Zm49.734.015c0-1.276.021-2.515,0-3.753a3.537,3.537,0,0,0-3.522-3.49q-5.1-.031-10.208,0a3.483,3.483,0,0,0-3.5,3.156c-.108,1.34-.021,2.7-.021,4.084h2.6c0-.909,0-1.778,0-2.647,0-1.019.487-1.594,1.324-1.586s1.289.573,1.292,1.615c0,.865,0,1.73,0,2.607h6.809c0-.988-.016-1.924,0-2.86a1.289,1.289,0,0,1,1.478-1.355,1.283,1.283,0,0,1,1.13,1.374c.014.948,0,1.9,0,2.855Zm-12.693-14.769c0,.344-.007.628,0,.91a4.081,4.081,0,0,0,3.773,3.973,4,4,0,0,0,4.224-3.222,11.666,11.666,0,0,0,.1-2.469,4.03,4.03,0,0,0-5.843-3.473A4.1,4.1,0,0,0-1090.333,720.938Zm-37.012,39.744v2.559h2.526v-2.559Zm47.144,0v2.559h2.513v-2.559Z" transform="translate(0 -31.348)" fill="#c9c9c9"/>
    <path id="Path_29271" data-name="Path 29271" d="M-1056.02,683.554a2.726,2.726,0,0,1,1.708-2.756,1.314,1.314,0,0,0,.891-1.313,1.222,1.222,0,0,0-.841-1.145,1.333,1.333,0,0,0-1.485.387,1.321,1.321,0,0,1-1.965.1,1.3,1.3,0,0,1,.1-1.923,3.745,3.745,0,0,1,4.121-1.069,3.7,3.7,0,0,1,2.674,3.452,3.723,3.723,0,0,1-2.016,3.685c-.333.191-.6.312-.59.8a1.339,1.339,0,0,1-1.313,1.543c-.78-.008-1.28-.616-1.288-1.568C-1056.02,683.685-1056.02,683.62-1056.02,683.554Z" transform="translate(-64.309)" fill="#c9c9c9"/>
    <path id="Path_29272" data-name="Path 29272" d="M-1044.894,746.177a1.307,1.307,0,0,1,1.273,1.311,1.347,1.347,0,0,1-1.312,1.291,1.316,1.316,0,0,1-1.291-1.362A1.272,1.272,0,0,1-1044.894,746.177Z" transform="translate(-74.099 -58.226)" fill="#c9c9c9"/>
    <path id="Path_29273" data-name="Path 29273" d="M-950.5,967.863a1.319,1.319,0,0,1,1.306,1.269,1.319,1.319,0,0,1-1.3,1.339,1.319,1.319,0,0,1-1.306-1.335A1.317,1.317,0,0,1-950.5,967.863Z" transform="translate(-152.011 -241.154)" fill="#c9c9c9"/>
  </g>
</svg>
