<svg xmlns="http://www.w3.org/2000/svg" width="60.272" height="66.985" viewBox="0 0 60.272 66.985">
  <g id="Group_7920" data-name="Group 7920" transform="translate(0)">
    <path id="Path_29258" data-name="Path 29258" d="M1755.813,201.415h-52.066a13.578,13.578,0,0,1-2.3-1.152,4.833,4.833,0,0,1-1.8-4.145q.022-25.926.009-51.852c0-.218,0-.436.013-.654a4.778,4.778,0,0,1,3.511-4.457,9.324,9.324,0,0,1,2.131-.228c1.124-.036,2.251-.01,3.435-.01,0-.581-.023-1.079,0-1.575a3.024,3.024,0,0,1,3.355-2.9,2.959,2.959,0,0,1,3.049,2.993c.011.472,0,.945,0,1.421h29.2a13.973,13.973,0,0,1,.16-2.192,3.09,3.09,0,0,1,3.66-2.205,3.01,3.01,0,0,1,2.641,2.945c.02.49,0,.982,0,1.51,1.367,0,2.632-.052,3.89.019a6.537,6.537,0,0,1,2.281.447,4.864,4.864,0,0,1,2.927,4.882q-.023,25.893-.009,51.786c0,.24,0,.48-.015.719a4.847,4.847,0,0,1-3.415,4.41C1756.253,201.252,1756.034,201.336,1755.813,201.415Zm-54.165-46.507c-.013.269-.031.461-.031.654q0,18.409,0,36.818a2.927,2.927,0,0,0,3.143,3.147q18.87,0,37.74,0a2.253,2.253,0,0,0,2.456-2.492c0-1.984,0-3.967,0-5.951a4.208,4.208,0,0,1,4.522-4.535c1.94-.009,3.881,0,5.821,0,1.8,0,2.64-.835,2.641-2.64q0-12.131,0-24.262c0-.229-.023-.458-.039-.737h-.911q-20.08,0-40.16,0a5.616,5.616,0,0,1-.848-.035.954.954,0,0,1-.041-1.878,4.7,4.7,0,0,1,.846-.046q20.113,0,40.226,0h.928v-.691c0-2.7,0-5.406,0-8.109a2.978,2.978,0,0,0-3.3-3.266q-3.794-.006-7.587,0h-.69c0,.868,0,1.649,0,2.431,0,1.124.086,1.224,1.176,1.5a.972.972,0,0,1-.216,1.929,2.63,2.63,0,0,1-.646-.076,2.923,2.923,0,0,1-2.269-2.838c-.022-.97,0-1.941,0-2.907H1710.7c0,.822,0,1.6,0,2.382,0,1.078.136,1.247,1.189,1.505a.962.962,0,0,1,.794,1.1.914.914,0,0,1-1,.832,2.692,2.692,0,0,1-.646-.076,2.981,2.981,0,0,1-2.3-2.963c-.018-.926,0-1.853,0-2.825-1.346,0-2.586,0-3.825,0a2.979,2.979,0,0,0-3.3,3.268q-.009,4.055,0,8.109c0,.21.022.421.037.689h.826q4.611,0,9.222,0a3.269,3.269,0,0,1,.778.059.956.956,0,0,1-.024,1.849,3.694,3.694,0,0,1-.78.049q-4.611,0-9.222,0Zm-.042,41.6a7.122,7.122,0,0,0,.125.814,2.96,2.96,0,0,0,3.081,2.127q24.952,0,49.9,0a2.941,2.941,0,0,0,3.228-3.193c.009-3.226,0-6.452,0-9.678,0-.161-.028-.322-.053-.577-.243.229-.417.384-.581.548-3.053,3.051-6.121,6.087-9.148,9.164a5.716,5.716,0,0,1-4.32,1.787q-19.065-.035-38.131,0A6.425,6.425,0,0,1,1701.606,196.511Zm45.322-2.6,9.4-9.4h-2.36s-3.225-.017-4.837.013a2.135,2.135,0,0,0-2.191,2.071C1746.9,189.067,1746.928,191.542,1746.928,193.912Zm-33.782-55.027c.153-1.551.073-2.151-.492-2.313a2.042,2.042,0,0,0-1.475.065c-.837.53-.358,1.45-.494,2.248Zm35.605.013c.289-1.084.157-2.007-.378-2.307a1.371,1.371,0,0,0-1.6.051c-.748.625-.287,1.48-.415,2.256Z" transform="translate(-1699.644 -134.429)" fill="#c9c9c9"/>
    <path id="Path_29259" data-name="Path 29259" d="M1737.534,351.931c-.741,0-1.483.009-2.224,0a1.851,1.851,0,0,1-1.956-1.917q-.043-2.321,0-4.643a1.847,1.847,0,0,1,1.894-1.923c1.547-.043,3.1-.041,4.643,0a1.891,1.891,0,0,1,1.943,1.962q.05,2.288,0,4.577a1.888,1.888,0,0,1-2.011,1.946C1739.06,351.939,1738.3,351.931,1737.534,351.931Zm-2.183-6.5v4.507h4.483v-4.507Z" transform="translate(-1727.447 -306.904)" fill="#c9c9c9"/>
    <path id="Path_29260" data-name="Path 29260" d="M1890.118,351.931c-.741,0-1.482.007-2.224,0a1.851,1.851,0,0,1-2-1.874c-.051-1.568-.047-3.139,0-4.707a1.848,1.848,0,0,1,1.919-1.9q2.32-.059,4.643,0a1.87,1.87,0,0,1,1.911,1.98q.038,2.256,0,4.512a1.882,1.882,0,0,1-2.022,1.991C1891.6,351.937,1890.859,351.931,1890.118,351.931Zm2.25-6.5h-4.491v4.492h4.491Z" transform="translate(-1853.322 -306.903)" fill="#c9c9c9"/>
    <path id="Path_29261" data-name="Path 29261" d="M1813.84,351.934c-.763,0-1.526.014-2.289,0a1.8,1.8,0,0,1-1.853-1.739q-.077-2.482,0-4.967a1.787,1.787,0,0,1,1.832-1.769c1.59-.047,3.184-.05,4.773,0a1.84,1.84,0,0,1,1.85,1.906q.057,2.32,0,4.642a1.875,1.875,0,0,1-2.023,1.928C1815.366,351.941,1814.6,351.934,1813.84,351.934Zm2.315-6.5h-4.481v4.506h4.481Z" transform="translate(-1790.44 -306.907)" fill="#c9c9c9"/>
    <path id="Path_29262" data-name="Path 29262" d="M1737.574,282.541c-.741,0-1.483.017-2.223,0a1.882,1.882,0,0,1-2-2.018q-.031-2.223,0-4.446a1.869,1.869,0,0,1,1.994-2.022q2.255-.049,4.512,0a1.9,1.9,0,0,1,1.984,2.047q.032,2.19,0,4.381a1.918,1.918,0,0,1-2.044,2.056C1739.057,282.556,1738.315,282.541,1737.574,282.541Zm-2.229-6.494v4.474h4.487v-4.474Z" transform="translate(-1727.449 -249.638)" fill="#c9c9c9"/>
    <path id="Path_29263" data-name="Path 29263" d="M1813.868,282.536c-.763,0-1.527.022-2.289,0a1.857,1.857,0,0,1-1.947-1.934c-.035-1.525-.033-3.051,0-4.576a1.842,1.842,0,0,1,1.914-1.966q2.32-.063,4.643,0a1.855,1.855,0,0,1,1.925,1.962c.031,1.525.034,3.052,0,4.576a1.873,1.873,0,0,1-1.952,1.938C1815.395,282.558,1814.631,282.536,1813.868,282.536Zm-2.247-2.018h4.486v-4.472h-4.486Z" transform="translate(-1790.396 -249.635)" fill="#c9c9c9"/>
    <path id="Path_29264" data-name="Path 29264" d="M1970.671,278.309c0,.741.012,1.482,0,2.223a1.867,1.867,0,0,1-1.937,2.012q-2.32.048-4.642,0a1.8,1.8,0,0,1-1.885-1.786c-.062-1.632-.061-3.269,0-4.9a1.77,1.77,0,0,1,1.824-1.774q2.384-.072,4.772,0a1.832,1.832,0,0,1,1.864,1.943C1970.686,276.783,1970.671,277.546,1970.671,278.309Zm-6.538-2.255c0,1.427-.009,2.775.013,4.123,0,.138.181.39.282.392,1.406.026,2.813.018,4.244.018v-4.533Z" transform="translate(-1916.296 -249.652)" fill="#c9c9c9"/>
    <path id="Path_29265" data-name="Path 29265" d="M1970.644,349.452c0,.741.013,1.482,0,2.223a1.858,1.858,0,0,1-1.9,1.975c-1.547.036-3.1.033-4.643,0a1.839,1.839,0,0,1-1.93-1.886q-.075-2.352,0-4.707a1.838,1.838,0,0,1,1.938-1.881q2.288-.057,4.577,0a1.878,1.878,0,0,1,1.964,2.052C1970.654,347.97,1970.644,348.711,1970.644,349.452Zm-2,2.211v-4.486h-4.493v4.486Z" transform="translate(-1916.268 -308.335)" fill="#c9c9c9"/>
    <path id="Path_29266" data-name="Path 29266" d="M1894.365,278.3c0,.763.02,1.526-.006,2.288a1.862,1.862,0,0,1-1.941,1.942q-2.288.047-4.577,0a1.855,1.855,0,0,1-1.959-1.925q-.064-2.319,0-4.641a1.831,1.831,0,0,1,1.907-1.907q2.32-.063,4.642,0a1.87,1.87,0,0,1,1.931,2.02C1894.381,276.816,1894.366,277.557,1894.365,278.3Zm-2.02,2.239v-4.484h-4.472v4.484Z" transform="translate(-1853.319 -249.636)" fill="#c9c9c9"/>
    <path id="Path_29267" data-name="Path 29267" d="M1737.537,421.494c-.74,0-1.48.011-2.219,0a1.871,1.871,0,0,1-1.96-1.916q-.044-2.349,0-4.7a1.844,1.844,0,0,1,1.927-1.877q2.284-.032,4.569,0a1.887,1.887,0,0,1,1.977,1.913c.041,1.543.038,3.09,0,4.634a1.91,1.91,0,0,1-2.014,1.947C1739.06,421.5,1738.3,421.494,1737.537,421.494Zm2.315-6.5h-4.495v4.5h4.495Z" transform="translate(-1727.449 -364.319)" fill="#c9c9c9"/>
    <path id="Path_29268" data-name="Path 29268" d="M1813.877,421.485c-.762,0-1.523.014-2.285,0a1.842,1.842,0,0,1-1.916-1.82q-.066-2.445,0-4.893A1.8,1.8,0,0,1,1811.5,413c1.588-.032,3.177-.03,4.765,0a1.806,1.806,0,0,1,1.851,1.748c.06,1.651.061,3.307,0,4.957a1.849,1.849,0,0,1-1.959,1.782C1815.4,421.5,1814.638,421.485,1813.877,421.485Zm2.261-1.982v-4.518h-4.472V419.5Z" transform="translate(-1790.427 -364.31)" fill="#c9c9c9"/>
    <path id="Path_29269" data-name="Path 29269" d="M1887.8,414.918c0,.422.02.831,0,1.238a.935.935,0,0,1-.984.989.951.951,0,0,1-.956-.959c-.012-.108,0-.218-.011-.327-.137-2.067.5-3.082,2.872-2.948,1.174.066,2.354,0,3.531.014a1.915,1.915,0,0,1,2.095,2.063q.026,2.19,0,4.381a1.918,1.918,0,0,1-2.1,2.054c-1.483.006-2.965.015-4.448,0a1.892,1.892,0,0,1-1.913-1.7.943.943,0,0,1,.659-1.131.957.957,0,0,1,1.2.537c.079.139.25.319.381.321,1.391.023,2.783.014,4.222.014v-4.543Z" transform="translate(-1853.303 -364.249)" fill="#c9c9c9"/>
  </g>
</svg>
