<svg width="26" height="30" viewBox="0 0 26 30" fill="none" xmlns="http://www.w3.org/2000/svg">
<g filter="url(#filter0_d_3_387)">
<path d="M21.0001 7.99952L15.0001 2.73952C14.4501 2.24756 13.738 1.97559 13.0001 1.97559C12.2622 1.97559 11.5501 2.24756 11.0001 2.73952L5.00009 7.99952C4.68246 8.28359 4.42899 8.63207 4.25657 9.02176C4.08414 9.41145 3.99671 9.8334 4.00009 10.2595V18.9995C4.00009 19.7952 4.31617 20.5582 4.87877 21.1208C5.44138 21.6834 6.20445 21.9995 7.00009 21.9995H19.0001C19.7957 21.9995 20.5588 21.6834 21.1214 21.1208C21.684 20.5582 22.0001 19.7952 22.0001 18.9995V10.2495C22.0021 9.82508 21.9139 9.40506 21.7416 9.0172C21.5692 8.62934 21.3165 8.28247 21.0001 7.99952ZM15.0001 19.9995H11.0001V14.9995C11.0001 14.7343 11.1055 14.4799 11.293 14.2924C11.4805 14.1049 11.7349 13.9995 12.0001 13.9995H14.0001C14.2653 13.9995 14.5197 14.1049 14.7072 14.2924C14.8947 14.4799 15.0001 14.7343 15.0001 14.9995V19.9995ZM20.0001 18.9995C20.0001 19.2647 19.8947 19.5191 19.7072 19.7066C19.5197 19.8942 19.2653 19.9995 19.0001 19.9995H17.0001V14.9995C17.0001 14.2039 16.684 13.4408 16.1214 12.8782C15.5588 12.3156 14.7957 11.9995 14.0001 11.9995H12.0001C11.2044 11.9995 10.4414 12.3156 9.87877 12.8782C9.31616 13.4408 9.00009 14.2039 9.00009 14.9995V19.9995H7.00009C6.73488 19.9995 6.48052 19.8942 6.29299 19.7066C6.10545 19.5191 6.00009 19.2647 6.00009 18.9995V10.2495C6.00027 10.1075 6.03069 9.96721 6.08931 9.8379C6.14794 9.70858 6.23343 9.59323 6.3401 9.49952L12.3401 4.24952C12.5226 4.0892 12.7572 4.00078 13.0001 4.00078C13.243 4.00078 13.4776 4.0892 13.6601 4.24952L19.6601 9.49952C19.7668 9.59323 19.8523 9.70858 19.9109 9.8379C19.9695 9.96721 19.9999 10.1075 20.0001 10.2495V18.9995Z" fill="black"/>
</g>
<defs>
<filter id="filter0_d_3_387" x="-3" y="0" width="32" height="32" filterUnits="userSpaceOnUse" color-interpolation-filters="sRGB">
<feFlood flood-opacity="0" result="BackgroundImageFix"/>
<feColorMatrix in="SourceAlpha" type="matrix" values="0 0 0 0 0 0 0 0 0 0 0 0 0 0 0 0 0 0 127 0" result="hardAlpha"/>
<feOffset dy="4"/>
<feGaussianBlur stdDeviation="2"/>
<feComposite in2="hardAlpha" operator="out"/>
<feColorMatrix type="matrix" values="0 0 0 0 0 0 0 0 0 0 0 0 0 0 0 0 0 0 0.25 0"/>
<feBlend mode="normal" in2="BackgroundImageFix" result="effect1_dropShadow_3_387"/>
<feBlend mode="normal" in="SourceGraphic" in2="effect1_dropShadow_3_387" result="shape"/>
</filter>
</defs>
</svg>
