<svg xmlns="http://www.w3.org/2000/svg" width="62.928" height="62.916" viewBox="0 0 62.928 62.916">
  <g id="Group_7919" data-name="Group 7919" transform="translate(0)">
    <path id="Path_29254" data-name="Path 29254" d="M2742.809,120.153c.013.016.024.043.04.045,2.379.452,3.953,2.39,3.9,5.308-.092,4.852-.024,9.707-.028,14.56a2.7,2.7,0,0,1-.065.728.9.9,0,0,1-1.763-.168,5.907,5.907,0,0,1-.012-.614q0-7.4,0-14.807c0-2.154-1.049-3.2-3.205-3.2h-30.289a3.367,3.367,0,0,1-.369,0c-.521-.058-.707.137-.7.69.03,2.437.014,4.874.012,7.311,0,2.377-1.266,3.643-3.635,3.644H2699.5c-.807,0-.81,0-.81.795q0,7.035,0,14.069,0,14.776,0,29.552c0,2.111,1.052,3.155,3.18,3.156q6.39,0,12.779,0c.243,0,.563-.044.71.086a1.371,1.371,0,0,1,.525.857c-.011.284-.328.607-.59.812-.162.126-.471.082-.714.082q-6.328.006-12.656,0a4.607,4.607,0,0,1-5-3.711c-.01-.034-.052-.06-.078-.089V133.548a6.589,6.589,0,0,1,2.124-3.346q3.892-3.819,7.713-7.713a7.115,7.115,0,0,1,3.558-2.337Zm-34.327,3.516-8.137,8.137c2.077,0,4.306,0,6.535,0a1.394,1.394,0,0,0,1.6-1.574c.014-1.6,0-3.192,0-4.787Z" transform="translate(-2696.847 -120.153)" fill="#c9c9c9"/>
    <path id="Path_29255" data-name="Path 29255" d="M2825.3,269.837c0-.986-.03-1.884.006-2.779a6.067,6.067,0,0,1,4.86-5.794,8.006,8.006,0,0,1,1.647-.146q4.793-.02,9.585-.005a6.18,6.18,0,0,1,6.544,6.545c0,.694,0,1.387,0,2.148.25.011.465.029.681.029,1.536,0,3.072-.011,4.608,0a4.973,4.973,0,0,1,5.156,5.212q.008,6.083,0,12.166c0,.1,0,.205,0,.307a.91.91,0,0,1-.893.971.9.9,0,0,1-.943-.977c-.015-1.27-.005-2.539-.005-3.809v-.836a8.612,8.612,0,0,1-6.1,3.036c0,.479.011.926,0,1.372a3.357,3.357,0,1,1-6.714-.013c-.012-.426,0-.853,0-1.324h-14.215c0,.449.007.893,0,1.337a3.37,3.37,0,0,1-6.739.052c-.015-.449,0-.9,0-1.249a23.7,23.7,0,0,1-3.282-1.068,22.134,22.134,0,0,1-2.769-1.879c-.006.086-.03.275-.03.464q0,5.991,0,11.981a3.157,3.157,0,0,0,3.484,3.452q16.436,0,32.872,0a3.185,3.185,0,0,0,3.5-3.5c0-1.147,0-2.294,0-3.441,0-.677.343-1.087.89-1.106.572-.02.955.405.947,1.109a39.035,39.035,0,0,1-.117,4.658,4.815,4.815,0,0,1-4.666,4.117c-.163.008-.327.009-.491.009q-16.5,0-32.995,0a4.989,4.989,0,0,1-5.158-3.936,6.6,6.6,0,0,1-.112-1.4q-.011-10.169,0-20.337a4.984,4.984,0,0,1,5.37-5.363C2821.871,269.835,2823.527,269.837,2825.3,269.837Zm18.354,14.194c.483-2.212,1.5-3.328,3.239-3.363a4.22,4.22,0,0,1,1.972.519,3.271,3.271,0,0,1,1.618,2.825,6.282,6.282,0,0,0,5.346-3.464c1.067-2.146.873-4.44.528-6.677-.217-1.409-1.591-2.189-3.231-2.189q-16.523,0-33.046,0c-.144,0-.287,0-.43.011a3.083,3.083,0,0,0-2.956,3.1c-.028,1.043-.047,2.091.016,3.132a6.212,6.212,0,0,0,4.139,5.712,12.637,12.637,0,0,0,1.866.465c.36-2.218,1.6-3.445,3.394-3.465,1.809-.021,3.036,1.178,3.462,3.4Zm-14.62-14.226c0-.78,0-1.531,0-2.282a2.422,2.422,0,0,1,2.628-2.642q4.942-.006,9.884,0a2.394,2.394,0,0,1,2.624,2.632c.005.752,0,1.5,0,2.282h1.928c0-.752,0-1.464,0-2.177a4.332,4.332,0,0,0-4.622-4.662q-4.85-.012-9.7,0a7.652,7.652,0,0,0-.917.059,4.05,4.05,0,0,0-3.529,3.059,27.8,27.8,0,0,0-.271,3.73Zm1.85-.008h11.444c0-.791-.015-1.543,0-2.294.016-.588-.257-.794-.822-.785-1.268.02-2.536.006-3.8.006-2,0-4.009,0-6.014,0-.411,0-.778.078-.8.552C2830.862,268.1,2830.887,268.937,2830.887,269.8Zm-3.22,15.888c0-.552.016-1.105,0-1.657a1.521,1.521,0,1,0-3.041-.034q-.052,1.655,0,3.313a1.521,1.521,0,1,0,3.042-.027C2827.683,286.749,2827.667,286.217,2827.667,285.685Zm17.912-.034c0,.572-.025,1.146.006,1.716a1.5,1.5,0,0,0,1.514,1.459,1.48,1.48,0,0,0,1.48-1.425c.038-1.163.038-2.33,0-3.493a1.481,1.481,0,0,0-1.477-1.429,1.5,1.5,0,0,0-1.517,1.456C2845.553,284.505,2845.579,285.079,2845.579,285.651Z" transform="translate(-2795.47 -237.967)" fill="#c9c9c9"/>
    <path id="Path_29256" data-name="Path 29256" d="M2830.708,191.022q4.513,0,9.026,0a3.914,3.914,0,0,1,.674.025.827.827,0,0,1,.729.791.814.814,0,0,1-.548.925,2.374,2.374,0,0,1-.782.1q-9.149.008-18.3,0a2.362,2.362,0,0,1-.724-.082.741.741,0,0,1-.56-.95,1.921,1.921,0,0,1,.73-.774c.137-.1.4-.033.6-.033Z" transform="translate(-2799.936 -179.369)" fill="#c9c9c9"/>
    <path id="Path_29257" data-name="Path 29257" d="M2830.764,158.245h9.088a3.631,3.631,0,0,1,.552.013.844.844,0,0,1,.781.811.835.835,0,0,1-.612.945,2.191,2.191,0,0,1-.664.071q-9.181.005-18.361,0a3.319,3.319,0,0,1-.49-.015.893.893,0,0,1-.813-.978.844.844,0,0,1,.878-.842c.47-.024.941-.008,1.412-.008Z" transform="translate(-2799.983 -151.987)" fill="#c9c9c9"/>
  </g>
</svg>
