<svg id="Group_7917" data-name="Group 7917" xmlns="http://www.w3.org/2000/svg" width="81.346" height="55.403" viewBox="0 0 81.346 55.403">
  <path id="Path_29238" data-name="Path 29238" d="M1523.157,276.531c-.083.1-.17.191-.247.292a1.121,1.121,0,0,1-1.465.432,1.905,1.905,0,0,1-.828-1.2,16.186,16.186,0,0,1-.043-2.533q0-9.444,0-18.888V253.58c-1.151,0-2.225,0-3.3,0-1.549,0-1.9-.364-1.9-1.927q0-11.547,0-23.094a6.468,6.468,0,0,1,5.333-6.471c.929-.174,1.854-.247,2.447.736Zm-2.638-25.59v-26.02a3.712,3.712,0,0,0-2.564,3.805q-.011,10.762,0,21.525c0,.225.034.45.054.689Z" transform="translate(-1441.811 -221.983)" fill="#fff"/>
  <path id="Path_29239" data-name="Path 29239" d="M1314.34,249.706a27.68,27.68,0,1,1-27.71-27.647A27.686,27.686,0,0,1,1314.34,249.706Zm-2.6-.006a25.095,25.095,0,1,0-25.07,25.136A25.116,25.116,0,0,0,1311.744,249.7Z" transform="translate(-1244.687 -222.041)" fill="#fff"/>
  <path id="Path_29240" data-name="Path 29240" d="M1199.733,234.13h2.622v-.886c0-3.2-.021-6.408.024-9.611a1.849,1.849,0,0,1,.547-1.291,1.369,1.369,0,0,1,1.289-.077,1.814,1.814,0,0,1,.689,1.283c.057,3.229.031,6.46.031,9.69v.888h2.586v-.891q0-4.647,0-9.294c0-.34-.053-.77.124-1a2.352,2.352,0,0,1,1.116-.833,1.062,1.062,0,0,1,1.246.749,1.4,1.4,0,0,1,.121.538c0,5.322.109,10.647-.063,15.964-.1,3.123-2.051,5.042-5.135,5.975v.863q0,14.655,0,29.311a3.822,3.822,0,0,1-.032.871,1.2,1.2,0,0,1-1.3,1.033,1.177,1.177,0,0,1-1.22-1.119,6.451,6.451,0,0,1-.023-.873q0-14.655.014-29.311a.9.9,0,0,0-.753-1.043,6.372,6.372,0,0,1-4.459-6.111c-.021-5.11-.009-10.22,0-15.33,0-1,.474-1.551,1.3-1.549s1.277.54,1.28,1.561c.007,3.2,0,6.408,0,9.611Zm7.713,2.671H1199.7a27.5,27.5,0,0,0,.153,2.882,3.864,3.864,0,0,0,7.568.072A19.156,19.156,0,0,0,1207.445,236.8Z" transform="translate(-1197.145 -222.051)" fill="#fff"/>
  <path id="Path_29241" data-name="Path 29241" d="M1288.875,272.875a20.824,20.824,0,0,1,18.248-20.806,20.22,20.22,0,0,1,14.7,3.793c.958.688,1.179,1.425.655,2.116-.5.664-1.228.662-2.162-.006a18.168,18.168,0,1,0,7.454,13.581,17.926,17.926,0,0,0-3.391-9.507,4.482,4.482,0,0,1-.4-.592,1.273,1.273,0,0,1,.459-1.671,1.3,1.3,0,0,1,1.758.366,20.38,20.38,0,0,1,3.044,5.629A20.774,20.774,0,1,1,1289,274.96C1288.911,274.2,1288.906,273.428,1288.875,272.875Z" transform="translate(-1267.672 -244.986)" fill="#fff"/>
</svg>
